<svg xmlns="http://www.w3.org/2000/svg" xmlns:xlink="http://www.w3.org/1999/xlink" viewBox="0 0 375 667">
  <defs>
    <style>
      .cls-1 {
        clip-path: url(#clip-iPhone_6_7_8_1);
      }

      .cls-11, .cls-2, .cls-3, .cls-5, .cls-6, .cls-9 {
        fill: none;
      }

      .cls-2 {
        stroke: #606162;
      }

      .cls-3, .cls-5, .cls-9 {
        stroke: #0caadc;
      }

      .cls-3 {
        stroke-width: 6px;
      }

      .cls-4 {
        fill: #dc0c0c;
      }

      .cls-5, .cls-6 {
        stroke-width: 5px;
      }

      .cls-6 {
        stroke: #00a9de;
      }

      .cls-7, .cls-8 {
        fill: #0caadc;
      }

      .cls-8 {
        font-size: 12px;
        font-family: SegoeUI-Bold, Segoe UI;
        font-weight: 700;
        letter-spacing: 0.2em;
      }

      .cls-9 {
        stroke-width: 3px;
      }

      .cls-10 {
        stroke: none;
      }

      .cls-12 {
        fill: #183440;
      }
    </style>
    <clipPath id="clip-iPhone_6_7_8_1">
      <rect width="375" height="667"/>
    </clipPath>
  </defs>
  <g id="iPhone_6_7_8_1" data-name="iPhone 6/7/8 – 1" class="cls-1">
    <rect class="cls-12" width="375" height="667"/>
    <g id="placeholder_box" data-name="placeholder box" class="cls-2">
      <rect class="cls-10" width="375" height="667"/>
      <rect class="cls-11" x="0.5" y="0.5" width="374" height="666"/>
    </g>
    <g id="Campvibes_logo" data-name="Campvibes logo" transform="translate(98 128)">
      <line id="line" class="cls-3" x2="56.014" y2="112.028" transform="translate(82.16 26.73)"/>
      <line id="line-2" data-name="line" class="cls-3" y1="112.028" x2="56.014" transform="translate(43.29 26.73)"/>
      <line id="line-3" data-name="line" class="cls-3" x1="121.447" transform="translate(28.784 138.758)"/>
      <path id="tent_blue_triangle" data-name="tent blue triangle" class="cls-4" d="M19.091,0,38.182,38.182H0Z" transform="translate(71.297 100.479)"/>
      <path id="moon_subtraction_" data-name="moon (subtraction)" class="cls-5" d="M12.167,23.589A12.17,12.17,0,0,1,7.963,0,12.178,12.178,0,0,0,19.99,14.029a12.125,12.125,0,0,0,4.2-.746A12.244,12.244,0,0,1,12.167,23.589Z" transform="translate(37.372 0)"/>
      <g id="tree_4" data-name="tree 4" transform="translate(159.048 50.749)">
        <path id="path" class="cls-5" d="M.4,10.154,10.395.7l9.995,9.454" transform="translate(-0.4 -0.483)"/>
        <path id="path-2" data-name="path" class="cls-5" d="M.4,10.154,10.395.7l9.995,9.454" transform="translate(-0.4 10.816)"/>
        <path id="path-3" data-name="path" class="cls-5" d="M.4,10.154,10.395.7l9.995,9.454" transform="translate(-0.4 22.114)"/>
        <path id="path-4" data-name="path" class="cls-5" d="M.4,10.154,10.395.7l9.995,9.454" transform="translate(-0.4 33.413)"/>
        <path id="path-5" data-name="path" class="cls-5" d="M.4,10.154,10.395.7l9.995,9.454" transform="translate(-0.4 44.711)"/>
        <line id="line-4" data-name="line" class="cls-5" y2="69.312" transform="translate(10.429)"/>
      </g>
      <g id="tree_3" data-name="tree 3" transform="translate(132.106 50.749)">
        <path id="path-6" data-name="path" class="cls-5" d="M.4,10.154,10.395.7l9.995,9.454" transform="translate(-0.4 -0.483)"/>
        <path id="path-7" data-name="path" class="cls-5" d="M.4,10.154,10.395.7l9.995,9.454" transform="translate(-0.4 10.816)"/>
        <path id="path-8" data-name="path" class="cls-5" d="M.4,10.154,10.395.7l9.995,9.454" transform="translate(-0.4 22.114)"/>
        <path id="path-9" data-name="path" class="cls-5" d="M.4,10.154,10.395.7l9.995,9.454" transform="translate(-0.4 33.413)"/>
        <path id="path-10" data-name="path" class="cls-5" d="M.4,10.154,10.395.7l9.995,9.454" transform="translate(-0.4 44.711)"/>
        <line id="line-5" data-name="line" class="cls-5" y2="69.312" transform="translate(10.429)"/>
      </g>
      <g id="tree_2" data-name="tree 2" transform="translate(26.943 50.749)">
        <path id="path-11" data-name="path" class="cls-5" d="M.4,10.154,10.395.7l9.995,9.454" transform="translate(-0.4 -0.483)"/>
        <path id="path-12" data-name="path" class="cls-5" d="M.4,10.154,10.395.7l9.995,9.454" transform="translate(-0.4 10.816)"/>
        <path id="path-13" data-name="path" class="cls-5" d="M.4,10.154,10.395.7l9.995,9.454" transform="translate(-0.4 22.114)"/>
        <path id="path-14" data-name="path" class="cls-5" d="M.4,10.154,10.395.7l9.995,9.454" transform="translate(-0.4 33.413)"/>
        <path id="path-15" data-name="path" class="cls-5" d="M.4,10.154,10.395.7l9.995,9.454" transform="translate(-0.4 44.711)"/>
        <line id="line-6" data-name="line" class="cls-5" y2="69.312" transform="translate(10.429)"/>
      </g>
      <g id="tree_1" data-name="tree 1" transform="translate(0 50.749)">
        <path id="path-16" data-name="path" class="cls-5" d="M.4,10.154,10.395.7l9.995,9.454" transform="translate(-0.4 -0.483)"/>
        <path id="path-17" data-name="path" class="cls-5" d="M.4,10.154,10.395.7l9.995,9.454" transform="translate(-0.4 10.816)"/>
        <path id="path-18" data-name="path" class="cls-5" d="M.4,10.154,10.395.7l9.995,9.454" transform="translate(-0.4 22.114)"/>
        <path id="path-19" data-name="path" class="cls-5" d="M.4,10.154,10.395.7l9.995,9.454" transform="translate(-0.4 33.413)"/>
        <path id="path-20" data-name="path" class="cls-5" d="M.4,10.154,10.395.7l9.995,9.454" transform="translate(-0.4 44.711)"/>
        <line id="line-7" data-name="line" class="cls-6" y2="69.312" transform="translate(10.429)"/>
      </g>
      <path id="flame" class="cls-7" d="M8.039.376c-.435-.435-1.086-.435-1.3,0C4.128,4.5,0,10.588,0,14.5a7.557,7.557,0,0,0,7.6,7.6,7.557,7.557,0,0,0,7.6-7.6C14.992,10.805,10.864,4.5,8.039.376Zm-.652,17.6a3.2,3.2,0,0,1-3.259-3.259,3.079,3.079,0,0,1,3.259-3.259,3.2,3.2,0,0,1,3.259,3.259A3.689,3.689,0,0,1,7.387,17.976Z" transform="translate(82.103 153.864)"/>
      <g id="logs" transform="translate(75.179 169.377)">
        <line id="line-8" data-name="line" class="cls-3" x2="29.087" y2="11.634" transform="translate(0 8.58)"/>
        <line id="line-9" data-name="line" class="cls-3" x2="29.087" y2="11.634" transform="translate(28.94 8.226) rotate(135)"/>
      </g>
      <text id="Campvibes" class="cls-8" transform="translate(89.741 216.67)"><tspan x="-43.297" y="0">CAMPVIBES</tspan></text>
      <path id="line-10" data-name="line" class="cls-9" d="M0,0H42.587" transform="translate(68.66 240)"/>
    </g>
  </g>
</svg>
